ffmpeg version 2024-07-22-git-172da370e7-full_build-www.gyan.dev Copyright (c) 2000-2024 the FFmpeg developers
  built with gcc 13.2.0 (Rev5, Built by MSYS2 project)
  configuration: --enable-gpl --enable-version3 --enable-static --disable-w32threads --disable-autodetect --enable-fontconfig --enable-iconv --enable-gnutls --enable-libxml2 --enable-gmp --enable-bzlib --enable-lzma --enable-libsnappy --enable-zlib --enable-librist --enable-libsrt --enable-libssh --enable-libzmq --enable-avisynth --enable-libbluray --enable-libcaca --enable-sdl2 --enable-libaribb24 --enable-libaribcaption --enable-libdav1d --enable-libdavs2 --enable-libopenjpeg --enable-libquirc --enable-libuavs3d --enable-libxevd --enable-libzvbi --enable-libqrencode --enable-librav1e --enable-libsvtav1 --enable-libvvenc --enable-libwebp --enable-libx264 --enable-libx265 --enable-libxavs2 --enable-libxeve --enable-libxvid --enable-libaom --enable-libjxl --enable-libvpx --enable-mediafoundation --enable-libass --enable-frei0r --enable-libfreetype --enable-libfribidi --enable-libharfbuzz --enable-liblensfun --enable-libvidstab --enable-libvmaf --enable-libzimg --enable-amf --enable-cuda-llvm --enable-cuvid --enable-dxva2 --enable-d3d11va --enable-d3d12va --enable-ffnvcodec --enable-libvpl --enable-nvdec --enable-nvenc --enable-vaapi --enable-libshaderc --enable-vulkan --enable-libplacebo --enable-opencl --enable-libcdio --enable-libgme --enable-libmodplug --enable-libopenmpt --enable-libopencore-amrwb --enable-libmp3lame --enable-libshine --enable-libtheora --enable-libtwolame --enable-libvo-amrwbenc --enable-libcodec2 --enable-libilbc --enable-libgsm --enable-libopencore-amrnb --enable-libopus --enable-libspeex --enable-libvorbis --enable-ladspa --enable-libbs2b --enable-libflite --enable-libmysofa --enable-librubberband --enable-libsoxr --enable-chromaprint
  libavutil      59. 28.100 / 59. 28.100
  libavcodec     61. 10.100 / 61. 10.100
  libavformat    61.  5.101 / 61.  5.101
  libavdevice    61.  2.100 / 61.  2.100
  libavfilter    10.  2.102 / 10.  2.102
  libswscale      8.  2.100 /  8.  2.100
  libswresample   5.  2.100 /  5.  2.100
  libpostproc    58.  2.100 / 58.  2.100
Input #0, matroska,webm, from 'physics\2226059347_209_Moving_Charges_&_Magnetism_05_Motion_Of_Charge_Particle_In_.mkv':
  Metadata:
    ENCODER         : Lavf60.22.101
  Duration: 02:33:02.27, start: 0.000000, bitrate: 359 kb/s
  Stream #0:0: Video: h264 (High), yuv420p(tv, progressive), 640x360 [SAR 1:1 DAR 16:9], 30 fps, 30 tbr, 1k tbn
      Metadata:
        DURATION        : 02:33:02.266000000
  Stream #0:1: Audio: aac (LC), 48000 Hz, stereo, fltp
      Metadata:
        DURATION        : 02:33:02.250000000
Stream mapping:
  Stream #0:0 -> #0:0 (copy)
  Stream #0:1 -> #0:1 (copy)
[segment @ 0000019ccd4665c0] Opening 'Moving_Charges_&_Magnetism\05\\output000.mkv' for writing
Output #0, segment, to 'Moving_Charges_&_Magnetism\05\\output%03d.mkv':
  Metadata:
    encoder         : Lavf61.5.101
  Stream #0:0: Video: h264 (High), yuv420p(tv, progressive), 640x360 [SAR 1:1 DAR 16:9], q=2-31, 30 fps, 30 tbr, 1k tbn
      Metadata:
        DURATION        : 02:33:02.266000000
  Stream #0:1: Audio: aac (LC), 48000 Hz, stereo, fltp
      Metadata:
        DURATION        : 02:33:02.250000000
Press [q] to stop, [?] for help
[segment @ 0000019ccd4665c0] Opening 'Moving_Charges_&_Magnetism\05\\output001.mkv' for writing
[segment @ 0000019ccd4665c0] Opening 'Moving_Charges_&_Magnetism\05\\output002.mkv' for writing
size=N/A time=00:13:37.62 bitrate=N/A speed=1.62e+03x    [segment @ 0000019ccd4665c0] Opening 'Moving_Charges_&_Magnetism\05\\output003.mkv' for writing
[segment @ 0000019ccd4665c0] Opening 'Moving_Charges_&_Magnetism\05\\output004.mkv' for writing
size=N/A time=00:21:19.85 bitrate=N/A speed=1.26e+03x    size=N/A time=00:21:43.86 bitrate=N/A speed= 848x    size=N/A time=00:22:23.65 bitrate=N/A speed= 654x    size=N/A time=00:24:22.78 bitrate=N/A speed= 569x    [segment @ 0000019ccd4665c0] Opening 'Moving_Charges_&_Magnetism\05\\output005.mkv' for writing
[segment @ 0000019ccd4665c0] Opening 'Moving_Charges_&_Magnetism\05\\output006.mkv' for writing
size=N/A time=00:32:36.69 bitrate=N/A speed= 634x    [segment @ 0000019ccd4665c0] Opening 'Moving_Charges_&_Magnetism\05\\output007.mkv' for writing
size=N/A time=00:38:30.93 bitrate=N/A speed= 642x    [segment @ 0000019ccd4665c0] Opening 'Moving_Charges_&_Magnetism\05\\output008.mkv' for writing
size=N/A time=00:44:08.56 bitrate=N/A speed= 643x    [segment @ 0000019ccd4665c0] Opening 'Moving_Charges_&_Magnetism\05\\output009.mkv' for writing
[segment @ 0000019ccd4665c0] Opening 'Moving_Charges_&_Magnetism\05\\output010.mkv' for writing
size=N/A time=00:51:20.19 bitrate=N/A speed= 665x    [segment @ 0000019ccd4665c0] Opening 'Moving_Charges_&_Magnetism\05\\output011.mkv' for writing
[segment @ 0000019ccd4665c0] Opening 'Moving_Charges_&_Magnetism\05\\output012.mkv' for writing
size=N/A time=01:02:08.21 bitrate=N/A speed= 724x    size=N/A time=01:04:34.45 bitrate=N/A speed= 684x    [segment @ 0000019ccd4665c0] Opening 'Moving_Charges_&_Magnetism\05\\output013.mkv' for writing
[segment @ 0000019ccd4665c0] Opening 'Moving_Charges_&_Magnetism\05\\output014.mkv' for writing
size=N/A time=01:14:38.35 bitrate=N/A speed= 724x    [segment @ 0000019ccd4665c0] Opening 'Moving_Charges_&_Magnetism\05\\output015.mkv' for writing
[segment @ 0000019ccd4665c0] Opening 'Moving_Charges_&_Magnetism\05\\output016.mkv' for writing
[segment @ 0000019ccd4665c0] Opening 'Moving_Charges_&_Magnetism\05\\output017.mkv' for writing
size=N/A time=01:26:02.02 bitrate=N/A speed= 771x    [segment @ 0000019ccd4665c0] Opening 'Moving_Charges_&_Magnetism\05\\output018.mkv' for writing
[segment @ 0000019ccd4665c0] Opening 'Moving_Charges_&_Magnetism\05\\output019.mkv' for writing
[segment @ 0000019ccd4665c0] Opening 'Moving_Charges_&_Magnetism\05\\output020.mkv' for writing
size=N/A time=01:43:03.63 bitrate=N/A speed= 857x    [segment @ 0000019ccd4665c0] Opening 'Moving_Charges_&_Magnetism\05\\output021.mkv' for writing
[segment @ 0000019ccd4665c0] Opening 'Moving_Charges_&_Magnetism\05\\output022.mkv' for writing
[segment @ 0000019ccd4665c0] Opening 'Moving_Charges_&_Magnetism\05\\output023.mkv' for writing
size=N/A time=01:59:22.00 bitrate=N/A speed= 926x    [segment @ 0000019ccd4665c0] Opening 'Moving_Charges_&_Magnetism\05\\output024.mkv' for writing
[segment @ 0000019ccd4665c0] Opening 'Moving_Charges_&_Magnetism\05\\output025.mkv' for writing
[segment @ 0000019ccd4665c0] Opening 'Moving_Charges_&_Magnetism\05\\output026.mkv' for writing
[segment @ 0000019ccd4665c0] Opening 'Moving_Charges_&_Magnetism\05\\output027.mkv' for writing
size=N/A time=02:15:22.16 bitrate=N/A speed= 985x    [segment @ 0000019ccd4665c0] Opening 'Moving_Charges_&_Magnetism\05\\output028.mkv' for writing
[segment @ 0000019ccd4665c0] Opening 'Moving_Charges_&_Magnetism\05\\output029.mkv' for writing
[segment @ 0000019ccd4665c0] Opening 'Moving_Charges_&_Magnetism\05\\output030.mkv' for writing
size=N/A time=02:31:26.46 bitrate=N/A speed=1.04e+03x    [out#0/segment @ 0000019ccd46e600] video:290934KiB audio:107604KiB subtitle:0KiB other streams:0KiB global headers:0KiB muxing overhead: unknown
size=N/A time=02:33:02.20 bitrate=N/A speed=1.03e+03x    
